<svg width="45" height="25" viewBox="0 0 45 25" fill="none" xmlns="http://www.w3.org/2000/svg">
<g clip-path="url(#clip0_617_35)">
<path fill-rule="evenodd" clip-rule="evenodd" d="M36.8394 7.26722C36.8394 6.83967 37.0099 6.42964 37.3133 6.12732C37.6168 5.82499 38.0284 5.65515 38.4576 5.65515C38.8868 5.65515 39.2984 5.82499 39.6019 6.12732C39.9054 6.42964 40.0759 6.83967 40.0759 7.26722V18.1034C40.0759 18.531 39.9054 18.941 39.6019 19.2433C39.2984 19.5457 38.8868 19.7155 38.4576 19.7155C38.0284 19.7155 37.6168 19.5457 37.3133 19.2433C37.0099 18.941 36.8394 18.531 36.8394 18.1034V7.26722Z" fill="#2EBBA6"/>
<path fill-rule="evenodd" clip-rule="evenodd" d="M20.1029 19.6552C19.8517 19.6894 19.5959 19.6653 19.3555 19.5847C19.1151 19.5041 18.8968 19.3692 18.7174 19.1905C18.5381 19.0119 18.4027 18.7943 18.3218 18.5549C18.2409 18.3155 18.2166 18.0606 18.251 17.8103V7.26722C18.251 6.83967 18.4215 6.42964 18.725 6.12732C19.0285 5.82499 19.4401 5.65515 19.8693 5.65515C20.2985 5.65515 20.7101 5.82499 21.0136 6.12732C21.3171 6.42964 21.4876 6.83967 21.4876 7.26722V16.431H31.8722V14.7069C31.8956 14.0649 31.663 13.4398 31.2252 12.9681C30.7874 12.4964 30.1799 12.2165 29.5356 12.1896H24.8279C24.3987 12.1896 23.9871 12.0198 23.6836 11.7175C23.3802 11.4151 23.2097 11.0051 23.2097 10.5776C23.2097 10.15 23.3802 9.73998 23.6836 9.43766C23.9871 9.13534 24.3987 8.9655 24.8279 8.9655H30.0808C30.7492 8.9665 31.4107 9.10024 32.0265 9.35891C32.6424 9.61757 33.2003 9.99596 33.6677 10.4719C34.135 10.9479 34.5024 11.512 34.7484 12.1311C34.9943 12.7502 35.1139 13.4119 35.1001 14.0776V18.1034C35.1072 18.4825 34.9733 18.8509 34.724 19.1374C34.4747 19.4239 34.1278 19.6084 33.7501 19.6552H20.1029Z" fill="#2EBBA6"/>
<path d="M26.7491 24.431C27.791 24.431 28.6356 23.5896 28.6356 22.5517C28.6356 21.5138 27.791 20.6724 26.7491 20.6724C25.7072 20.6724 24.8625 21.5138 24.8625 22.5517C24.8625 23.5896 25.7072 24.431 26.7491 24.431Z" fill="#FF1744"/>
<path d="M31.2144 24.431C32.2563 24.431 33.101 23.5896 33.101 22.5517C33.101 21.5138 32.2563 20.6724 31.2144 20.6724C30.1725 20.6724 29.3279 21.5138 29.3279 22.5517C29.3279 23.5896 30.1725 24.431 31.2144 24.431Z" fill="#FF1744"/>
<path d="M22.1365 24.431C23.1784 24.431 24.0231 23.5896 24.0231 22.5517C24.0231 21.5138 23.1784 20.6724 22.1365 20.6724C21.0946 20.6724 20.25 21.5138 20.25 22.5517C20.25 23.5896 21.0946 24.431 22.1365 24.431Z" fill="#FF1744"/>
<path fill-rule="evenodd" clip-rule="evenodd" d="M12.9807 10.7845V18.3103L12.0548 19.2672C11.8423 19.4147 11.6658 19.6077 11.5381 19.8321C11.4105 20.0565 11.335 20.3065 11.3173 20.5639C11.2996 20.8212 11.34 21.0792 11.4356 21.3188C11.5313 21.5585 11.6796 21.7738 11.8699 21.9487C12.0601 22.1237 12.2873 22.2539 12.5347 22.3298C12.7822 22.4057 13.0436 22.4253 13.2997 22.3872C13.5557 22.3491 13.8 22.2543 14.0143 22.1097C14.2287 21.9651 14.4078 21.7744 14.5384 21.5517L16.1913 19.8879C16.392 19.6925 16.5071 19.4261 16.5115 19.1465V10.7759C16.5115 8.36207 12.9807 8.49138 12.9807 10.7759V10.7845Z" fill="#2EBBA6"/>
<path fill-rule="evenodd" clip-rule="evenodd" d="M43.0184 0.56897C43.4514 0.665296 43.8335 0.917574 44.0913 1.27737C44.349 1.63717 44.4643 2.07914 44.415 2.51842C44.3656 2.95771 44.1551 3.36335 43.8239 3.65748C43.4926 3.95161 43.064 4.1135 42.6203 4.11207H35.0049L34.0357 5.04311C33.8866 5.24806 33.6941 5.41781 33.4718 5.54031C33.2495 5.66281 33.0028 5.73504 32.7493 5.7519C32.4958 5.76875 32.2417 5.7298 32.005 5.63781C31.7684 5.54583 31.5549 5.40307 31.3798 5.21966C31.2048 5.03625 31.0724 4.8167 30.9921 4.57659C30.9118 4.33648 30.8855 4.08171 30.9151 3.83035C30.9448 3.57899 31.0296 3.33722 31.1636 3.1222C31.2976 2.90718 31.4775 2.72419 31.6905 2.58621L33.4213 0.931039C33.6174 0.731146 33.8849 0.616511 34.1655 0.612073L43.0184 0.56897Z" fill="#2EBBA6"/>
<path fill-rule="evenodd" clip-rule="evenodd" d="M0.597135 14V17.8879C0.578229 18.1211 0.609678 18.3556 0.689367 18.5756C0.769055 18.7957 0.895133 18.9962 1.05912 19.1636C1.2231 19.331 1.42119 19.4616 1.64004 19.5463C1.8589 19.6311 2.09345 19.6682 2.3279 19.6552H9.6231C10.0715 19.6285 10.4919 19.4292 10.7955 19.0994C11.099 18.7697 11.262 18.3352 11.25 17.8879V10.7069C11.2611 10.4775 11.224 10.2484 11.141 10.0342C11.0579 9.82 10.9308 9.62547 10.7678 9.4631C10.6048 9.30073 10.4096 9.17412 10.1945 9.0914C9.9795 9.00867 9.74949 8.97167 9.51925 8.98276H5.86733C4.13656 9.0862 0.597135 9.80172 0.597135 14ZM4.05867 16.431V14.2328C4.05867 12.9569 5.3481 12.2155 6.51637 12.2155H7.78848V16.431H4.05867Z" fill="#2EBBA6"/>
</g>
<defs>
<clipPath id="clip0_617_35">
<rect width="45" height="25" fill="white"/>
</clipPath>
</defs>
</svg>
